<svg width="400" height="400" viewBox="0 0 400 400" fill="none" xmlns="http://www.w3.org/2000/svg">
<path transform="scale(2) translate(10,40)" d="M94.1566,22.8189c-10.4-14.8851-30.94-19.2971-45.7914-9.8348L22.2825,29.6078A29.9234,29.9234,0,0,0,8.7639,49.6506a31.5136,31.5136,0,0,0,3.1076,20.2318A30.0061,30.0061,0,0,0,7.3953,81.0653a31.8886,31.8886,0,0,0,5.4473,24.1157c10.4022,14.8865,30.9423,19.2966,45.7914,9.8348L84.7167,98.3921A29.9177,29.9177,0,0,0,98.2353,78.3493,31.5263,31.5263,0,0,0,95.13,58.117a30,30,0,0,0,4.4743-11.1824,31.88,31.88,0,0,0-5.4473-24.1157" style="fill:#ff3e00"/>
<path transform="scale(2) translate(10,40)" d="M45.8171,106.5815A20.7182,20.7182,0,0,1,23.58,98.3389a19.1739,19.1739,0,0,1-3.2766-14.5025,18.1886,18.1886,0,0,1,.6233-2.4357l.4912-1.4978,1.3363.9815a33.6443,33.6443,0,0,0,10.203,5.0978l.9694.2941-.0893.9675a5.8474,5.8474,0,0,0,1.052,3.8781,6.2389,6.2389,0,0,0,6.6952,2.485,5.7449,5.7449,0,0,0,1.6021-.7041L69.27,76.281a5.4306,5.4306,0,0,0,2.4506-3.631,5.7948,5.7948,0,0,0-.9875-4.3712,6.2436,6.2436,0,0,0-6.6978-2.4864,5.7427,5.7427,0,0,0-1.6.7036l-9.9532,6.3449a19.0329,19.0329,0,0,1-5.2965,2.3259,20.7181,20.7181,0,0,1-22.2368-8.2427,19.1725,19.1725,0,0,1-3.2766-14.5024,17.9885,17.9885,0,0,1,8.13-12.0513L55.8833,23.7472a19.0038,19.0038,0,0,1,5.3-2.3287A20.7182,20.7182,0,0,1,83.42,29.6611a19.1739,19.1739,0,0,1,3.2766,14.5025,18.4,18.4,0,0,1-.6233,2.4357l-.4912,1.4978-1.3356-.98a33.6175,33.6175,0,0,0-10.2037-5.1l-.9694-.2942.0893-.9675a5.8588,5.8588,0,0,0-1.052-3.878,6.2389,6.2389,0,0,0-6.6952-2.485,5.7449,5.7449,0,0,0-1.6021.7041L37.73,51.719a5.4218,5.4218,0,0,0-2.4487,3.63,5.7862,5.7862,0,0,0,.9856,4.3717,6.2437,6.2437,0,0,0,6.6978,2.4864,5.7652,5.7652,0,0,0,1.602-.7041l9.9519-6.3425a18.978,18.978,0,0,1,5.2959-2.3278,20.7181,20.7181,0,0,1,22.2368,8.2427,19.1725,19.1725,0,0,1,3.2766,14.5024,17.9977,17.9977,0,0,1-8.13,12.0532L51.1167,104.2528a19.0038,19.0038,0,0,1-5.3,2.3287" style="fill:#fff"/>
<path d="M193.981 167.584C205.861 170.958 212.144 179.287 215.465 186.658L228.711 190.42C228.711 190.42 226.904 164.623 203.57 157.995C181.741 151.793 168.308 170.124 166.674 172.496C173.024 167.972 182.297 164.268 193.981 167.584ZM299.422 186.777C277.573 180.547 264.145 198.916 262.535 201.255C268.89 196.736 278.158 193.031 289.837 196.362C301.698 199.741 307.976 208.06 311.307 215.436L324.572 219.212C324.572 219.212 322.736 193.41 299.422 186.777ZM286.262 254.795L176.072 223.99C176.072 223.99 177.265 230.038 181.842 237.869L274.617 263.805C282.255 259.386 286.262 254.795 286.262 254.795ZM209.867 321.102C122.618 297.71 133.166 186.543 147.284 133.865C153.097 112.156 159.073 96.0203 164.029 85.204C161.072 84.5953 158.623 86.1529 156.203 91.0746C150.941 101.747 144.212 119.124 137.7 143.45C123.586 196.127 113.038 307.29 200.283 330.682C241.406 341.699 273.442 324.955 297.323 298.659C274.655 319.19 245.714 330.701 209.867 321.102Z" fill="#2D4552"/>
<path d="M341.786 129.174C329.345 131.355 299.498 134.072 262.612 124.185C225.716 114.304 201.236 97.0224 191.537 88.8994C177.788 77.3834 171.74 69.3802 165.788 81.4857C160.526 92.163 153.797 109.54 147.284 133.866C133.171 186.543 122.623 297.706 209.867 321.098C297.093 344.47 343.53 242.92 357.644 190.238C364.157 165.917 367.013 147.5 367.799 135.625C368.695 122.173 359.455 126.078 341.786 129.174ZM166.497 172.756C166.497 172.756 180.246 151.372 203.565 158C226.899 164.628 228.706 190.425 228.706 190.425L166.497 172.756ZM223.42 268.713C182.403 256.698 176.077 223.99 176.077 223.99L286.262 254.796C286.262 254.791 264.021 280.578 223.42 268.713ZM262.377 201.495C262.377 201.495 276.107 180.126 299.422 186.773C322.736 193.411 324.572 219.208 324.572 219.208L262.377 201.495Z" fill="#2EAD33"/>
<path d="M225.27 269.163L223.415 268.712C182.398 256.698 176.072 223.99 176.072 223.99L232.89 239.872L262.971 124.281L262.607 124.185C225.711 114.304 201.232 97.0224 191.532 88.8994C177.783 77.3834 171.735 69.3802 165.783 81.4857C160.526 92.163 153.797 109.54 147.284 133.866C133.171 186.543 122.623 297.706 209.867 321.097L211.655 321.5L225.27 269.163ZM166.497 172.756C166.497 172.756 180.246 151.372 203.565 158C226.899 164.628 228.706 190.425 228.706 190.425L166.497 172.756Z" fill="#1D8D22"/>
<path d="M141.946 245.451L131.072 248.537C133.641 263.019 138.169 276.917 145.276 289.195C146.513 288.922 147.74 288.687 149 288.342C152.302 287.451 155.364 286.348 158.312 285.145C150.371 273.361 145.118 259.789 141.946 245.451ZM137.7 143.451C132.112 164.307 127.113 194.326 128.489 224.436C130.952 223.367 133.554 222.371 136.444 221.551L138.457 221.101C136.003 188.939 141.308 156.165 147.284 133.866C148.799 128.225 150.318 122.978 151.832 118.085C149.393 119.637 146.767 121.228 143.776 122.867C141.759 129.093 139.722 135.898 137.7 143.451Z" fill="#C04B41"/>
</svg>
